<?xml version="1.0" encoding="UTF-8" standalone="no"?>
<!-- Created with Inkscape (http://www.inkscape.org/) -->

<svg
   width="140mm"
   height="140mm"
   viewBox="0 0 140 140"
   version="1.1"
   id="svg8"
   sodipodi:docname="laserwar.svg"
   inkscape:version="1.4 (e7c3feb1, 2024-10-09)"
   xmlns:inkscape="http://www.inkscape.org/namespaces/inkscape"
   xmlns:sodipodi="http://sodipodi.sourceforge.net/DTD/sodipodi-0.dtd"
   xmlns="http://www.w3.org/2000/svg"
   xmlns:svg="http://www.w3.org/2000/svg"
   xmlns:rdf="http://www.w3.org/1999/02/22-rdf-syntax-ns#"
   xmlns:cc="http://creativecommons.org/ns#"
   xmlns:dc="http://purl.org/dc/elements/1.1/">
  <title
     id="title4632">Debris</title>
  <defs
     id="defs2" />
  <sodipodi:namedview
     id="base"
     pagecolor="#000000"
     bordercolor="#666666"
     borderopacity="1.0"
     inkscape:pageopacity="0"
     inkscape:pageshadow="2"
     inkscape:zoom="0.3309988"
     inkscape:cx="358.00734"
     inkscape:cy="42.296226"
     inkscape:document-units="mm"
     inkscape:current-layer="layer1"
     showgrid="true"
     inkscape:window-width="1320"
     inkscape:window-height="847"
     inkscape:window-x="0"
     inkscape:window-y="25"
     inkscape:window-maximized="0"
     fit-margin-top="0"
     fit-margin-left="0"
     fit-margin-right="0"
     fit-margin-bottom="0"
     inkscape:pagecheckerboard="false"
     inkscape:showpageshadow="2"
     inkscape:deskcolor="#d1d1d1">
    <inkscape:grid
       type="xygrid"
       id="grid815"
       originx="0"
       originy="-39.999996"
       spacingy="1"
       spacingx="1"
       units="mm"
       visible="true" />
  </sodipodi:namedview>
  <metadata
     id="metadata5">
    <rdf:RDF>
      <cc:Work
         rdf:about="">
        <dc:format>image/svg+xml</dc:format>
        <dc:type
           rdf:resource="http://purl.org/dc/dcmitype/StillImage" />
        <dc:title>Debris</dc:title>
        <dc:creator>
          <cc:Agent>
            <dc:title>Ewoud van den Boom</dc:title>
          </cc:Agent>
        </dc:creator>
      </cc:Work>
    </rdf:RDF>
  </metadata>
  <g
     inkscape:label="Layer 1"
     inkscape:groupmode="layer"
     id="layer1"
     transform="translate(0,-117)">
    <g
       id="g29"
       transform="translate(-175.00014,99.999998)">
      <path
         id="rect1"
         style="opacity:0.39;fill:#ff0000;fill-opacity:1;stroke-width:0.264583"
         d="m 194.99995,52.000332 v 9.999906 h 9.9999 9.99991 v 9.999907 h 9.99991 v 9.999906 h -9.99991 -9.99991 v 9.999907 h 9.99991 9.99991 v 9.999902 h -9.99991 v 10.00043 h -9.99991 -9.9999 v 9.99991 h 9.9999 9.99991 9.99991 9.9999 H 245 v -9.99991 H 234.99957 V 101.99986 H 245 h 9.9999 v -9.999902 h 9.99991 9.9999 v -9.999907 h -9.9999 -9.99991 V 72.000145 H 245 234.99957 V 62.000238 H 245 v -9.999906 h -10.00043 -9.9999 -9.99991 -9.99991 z m 39.99962,29.999719 H 245 v 9.999907 h -10.00043 z" />
      <path
         id="path26"
         style="opacity:0.5;fill:#ff0000;fill-opacity:1;stroke-width:0.264583"
         d="m 205.00038,52.000332 v 9.999906 h 9.9999 9.99991 v 9.999907 h 9.99991 v 9.999906 h -9.99991 -9.99991 v 9.999907 h 9.99991 9.99991 v 9.999902 h -9.99991 v 10.00043 h -9.99991 -9.9999 v 9.99991 h 9.9999 9.99991 9.99991 9.9999 10.00043 v -9.99991 H 245 v -10.00043 h 10.00043 9.9999 v -9.999902 h 9.99991 9.9999 v -9.999907 h -9.9999 -9.99991 V 72.000145 H 255.00043 245 v -9.999907 h 10.00043 V 52.000332 H 245 h -9.9999 -9.99991 -9.99991 z M 245,82.000051 h 10.00043 v 9.999907 H 245 Z" />
      <path
         id="path27"
         style="fill:#ff0000;fill-opacity:1;stroke-width:0.264583"
         d="m 215.00002,52.000329 v 9.999909 h 9.9999 9.99991 v 9.9999 h 9.99991 v 9.99991 h -9.99991 -9.99991 v 9.99991 h 9.99991 9.99991 v 9.999902 h -9.99991 v 10.00043 h -9.99991 -9.9999 v 9.99991 h 9.9999 9.99991 9.99991 9.9999 10.00043 v -9.99991 h -10.00043 v -10.00043 h 10.00043 9.99991 v -9.999902 h 9.99991 9.9999 v -9.99991 h -9.9999 -9.99991 v -9.99991 h -9.99991 -10.00043 v -9.9999 h 10.00043 v -9.999909 h -10.00043 -9.9999 -9.99991 -9.99991 z m 39.99962,29.999719 h 10.00043 v 9.99991 h -10.00043 z" />
      <rect
         y="82"
         x="255.00008"
         height="10"
         width="10"
         id="rect27"
         style="fill:#000000;fill-opacity:1;stroke-width:0.264583" />
      <rect
         y="82.000267"
         x="244.86978"
         height="10"
         width="10"
         id="rect29"
         style="fill:#000000;fill-opacity:1;stroke-width:0.264583" />
    </g>
  </g>
</svg>
